<svg width="201" height="43" viewBox="0 0 201 43" fill="none" xmlns="http://www.w3.org/2000/svg">
<g clip-path="url(#clip0_118_5189)">
<path d="M53.5121 6.74121H56.9275L63.9145 21.0978L76.1515 6.74121H79.4387L65.3364 23.2509C64.8457 23.8206 64.171 24.3121 63.2928 24.3121C62.4647 24.3121 61.9461 23.8457 61.6617 23.2509L53.5121 6.74121Z" fill="white"/>
<path d="M80.8299 24.0775L83.9108 6.74121H86.7045L83.6236 24.0775H80.8299Z" fill="white"/>
<path d="M89.4201 24.0775L92.4731 6.74121H95.2667L92.6264 21.7206H107.066L104.813 24.0775H89.4201Z" fill="white"/>
<path d="M110.944 24.0775L113.997 6.74121H116.791L114.151 21.7206H128.59L126.337 24.0775H110.944Z" fill="white"/>
<path d="M132.466 24.0775L135.519 6.74121H153.917L151.664 9.12607H137.925L136.993 14.3342H151.743L149.777 16.4091H136.631L135.7 21.7206H151.38L149.13 24.0775H132.466Z" fill="white"/>
<path d="M155.283 24.0775L158.336 6.74121H161.13L158.493 21.7206H172.929L170.679 24.0775H155.283Z" fill="white"/>
<path d="M182.242 24.0777L184.363 21.7208H196.422L190.547 9.69595L178.336 24.0805H175.023L189.151 7.57081C189.616 7.02625 190.316 6.50684 191.169 6.50684C192.022 6.50684 192.541 6.9732 192.825 7.57081L201.003 24.0805H182.244L182.242 24.0777Z" fill="white"/>
<path d="M81.4349 36.2029L82.1766 31.9749H88.4888C89.342 31.9749 89.9275 31.436 89.9275 30.6708C89.9275 30.0425 89.4898 29.7157 88.7481 29.7157H82.6282L83.6403 28.6797H88.8848C90.2983 28.6797 91.1431 29.2857 91.1431 30.3664C91.1431 31.5141 90.29 32.1648 89.6375 32.3352C90.1868 32.4804 90.6831 32.9775 90.6831 33.8096C90.6831 35.0244 89.9191 36.2057 87.5493 36.2057H81.4405L81.4349 36.2029ZM83.2444 32.8741L82.8401 35.1808H87.7361C88.9377 35.1808 89.4647 34.5497 89.4647 33.832C89.4647 33.2707 89.105 32.8769 88.3522 32.8769H83.2416L83.2444 32.8741Z" fill="white"/>
<path d="M107.183 36.2029L104.936 33.7175H100.612L100.185 36.2029H98.9721L99.5771 32.7401H104.955C106.483 32.7401 107.908 32.2793 107.908 31.0199C107.908 30.0201 106.921 29.7157 105.505 29.7157H100.093L101.069 28.6797H106.121C107.716 28.6797 109.188 29.2661 109.188 30.816C109.188 32.3659 107.975 33.3349 106.235 33.4941L108.828 36.2057H107.178L107.183 36.2029Z" fill="white"/>
<path d="M119.769 36.203L120.689 35.1782H125.922L123.374 29.9588L118.073 36.2002H116.635L122.766 29.0345C122.967 28.7971 123.27 28.5737 123.641 28.5737C124.012 28.5737 124.235 28.7776 124.361 29.0345L127.91 36.2002H119.769V36.203Z" fill="white"/>
<path d="M135.839 36.2032L136.815 35.1783H142.712C144.025 35.1783 144.666 34.6841 144.666 33.7821C144.666 32.9722 143.891 32.8717 142.612 32.8717H139.581C137.908 32.8717 137.111 32.2657 137.111 31.1738C137.111 29.6435 138.156 28.6772 140.523 28.6772H146.599L145.634 29.7133H140.256C138.954 29.7133 138.301 30.1964 138.301 31.0956C138.301 31.8719 139.065 31.9725 140.356 31.9725H143.401C145.018 31.9725 145.849 32.5338 145.849 33.648C145.849 35.2342 144.85 36.2004 142.447 36.2004H135.845L135.839 36.2032Z" fill="white"/>
<path d="M154.018 36.2032L155.353 28.6772H156.566L155.23 36.2032H154.018Z" fill="white"/>
<path d="M164.203 36.2032L165.527 28.6772H166.74L165.594 35.1783H171.859L170.883 36.2032H164.2H164.203Z" fill="white"/>
<path d="M6.5158 0L0 6.52624V43H36.4182C38.961 40.4532 40.3885 39.0234 42.9312 36.4766V0H6.5158ZM15.4405 34.3374L4.46654 16.1466L15.1255 28.5261C15.4238 28.8696 15.658 28.7635 15.9758 28.5512L17.2946 27.6688L19.4665 30.2352L15.4377 34.3374H15.4405ZM24.7305 34.3626L11.7407 19.7993C8.39777 16.0545 5.59015 12.5889 3.52416 12.709C9.42379 11.3574 13.974 16.9649 17.5316 20.7656L24.5047 28.272C24.9145 28.7132 25.1125 28.5596 25.4387 28.2636L31.7481 22.5612L24.7333 34.3626H24.7305ZM37.7398 16.9593C37.9071 14.0913 35.3783 16.3784 34.5864 17.004L24.1227 26.0686L22.2909 24.125L34.8541 15.6691C35.5539 15.2419 37.2463 14.0969 38.0493 15.4345C38.816 12.9938 35.4591 14.0885 34.3327 14.4236C32.5483 12.6392 29.9303 14.3622 28.1989 15.3703L19.0483 20.6874L18.0948 19.6737L27.5019 14.5074C31.3244 12.4744 33.145 12.3124 34.5586 13.6277C38.4619 12.1924 40.3048 14.5186 37.7426 16.9565L37.7398 16.9593ZM30.2454 15.6216C30.881 14.8788 32.8494 14.5214 33.3429 14.5297C33.3708 15.9595 31.04 15.6691 30.2454 15.6216Z" fill="white"/>
</g>
<defs>
<clipPath id="clip0_118_5189">
<rect width="201" height="43" fill="white"/>
</clipPath>
</defs>
</svg>
